<?xml version="1.0" standalone="no"?>
<!DOCTYPE svg PUBLIC "-//W3C//DTD SVG 20010904//EN"
 "http://www.w3.org/TR/2001/REC-SVG-20010904/DTD/svg10.dtd">
<svg version="1.0" xmlns="http://www.w3.org/2000/svg"
 width="512.000000pt" height="512.000000pt" viewBox="0 0 512.000000 512.000000"
 preserveAspectRatio="xMidYMid meet">

<g transform="translate(0.000000,512.000000) scale(0.100000,-0.100000)"
fill="#000000" stroke="none">
<path d="M748 5102 c-8 -9 -31 -38 -52 -64 l-37 -47 145 -116 c80 -65 146
-119 146 -120 0 -2 -51 -20 -112 -41 -62 -20 -117 -39 -121 -41 -7 -4 510
-423 522 -423 10 1 95 114 92 125 -1 6 -65 60 -142 122 -77 61 -136 113 -132
116 4 2 59 21 121 41 61 21 112 39 112 41 0 2 -100 83 -222 181 -123 98 -241
192 -264 211 -38 31 -42 32 -56 15z"/>
<path d="M2276 4630 c-617 -98 -1066 -617 -1066 -1235 0 -144 19 -251 80 -465
27 -96 50 -183 50 -194 0 -10 -117 -385 -261 -834 -143 -448 -267 -847 -276
-886 -51 -241 83 -509 309 -620 139 -69 284 -81 428 -37 91 28 145 64 395 258
121 95 224 173 230 175 5 2 36 -174 70 -392 l60 -395 1153 -3 1152 -2 0 344 0
344 90 53 c193 113 314 265 382 479 20 65 23 95 23 225 -1 143 -2 154 -33 245
-46 132 -94 208 -213 335 -317 340 -510 606 -690 950 l-71 135 111 -75 c109
-73 270 -159 383 -204 31 -13 74 -37 95 -56 95 -81 116 -218 55 -349 -18 -38
-31 -70 -30 -71 10 -9 129 -65 138 -65 12 0 51 78 75 150 25 75 24 196 -3 272
-43 121 -136 217 -260 268 -129 54 -286 138 -379 203 -49 34 -145 118 -214
187 -126 126 -126 126 -164 226 -88 229 -175 380 -304 529 -209 241 -518 421
-839 486 -111 23 -382 33 -476 19z m404 -177 c417 -69 804 -358 984 -736 19
-40 67 -157 106 -262 150 -398 271 -641 463 -930 140 -211 272 -375 456 -569
62 -65 128 -143 147 -173 147 -229 128 -536 -47 -748 -46 -56 -153 -145 -175
-145 -12 0 -14 39 -14 248 0 213 -3 260 -19 324 -21 80 -67 181 -108 236 -14
18 -23 35 -21 37 9 9 107 -66 146 -111 23 -25 54 -71 68 -100 15 -30 29 -54
33 -54 12 0 136 42 143 49 12 10 -44 119 -96 188 -54 71 -146 145 -226 180
-206 93 -271 130 -378 222 -77 65 -172 188 -237 307 -32 57 -59 104 -61 104
-3 0 -36 -16 -75 -35 l-70 -36 51 -97 c63 -118 123 -203 202 -288 33 -35 58
-64 56 -64 -19 0 -124 38 -173 63 -84 42 -192 153 -235 240 l-33 68 18 72 c9
40 20 123 23 185 l5 113 62 62 c47 47 66 76 80 117 67 200 -58 390 -256 390
-37 0 -78 -4 -92 -9 -22 -8 -26 -5 -49 43 l-26 52 48 59 49 58 -64 48 -64 49
-88 -88 c-153 -152 -301 -209 -521 -199 -203 8 -276 43 -550 261 -100 80 -184
146 -187 146 -3 0 -5 -56 -5 -126 0 -177 -27 -286 -102 -410 l-30 -50 -53 4
c-96 8 -229 -47 -290 -120 -14 -17 -28 -29 -30 -26 -13 12 -56 205 -66 293
-26 234 41 498 181 706 63 93 193 223 285 284 256 170 514 222 835 168z m-486
-1121 c85 -65 205 -124 312 -154 65 -18 105 -22 224 -21 129 0 155 3 235 27
50 15 123 45 163 66 l73 40 104 -211 c124 -252 140 -306 133 -472 -8 -169 -62
-296 -178 -415 -262 -270 -700 -267 -992 6 -52 48 -248 300 -248 318 0 28 47
52 111 57 41 3 88 14 123 30 60 28 140 97 169 146 l18 30 -72 36 -71 36 -37
-40 c-35 -38 -93 -71 -124 -71 -10 0 -16 19 -20 67 -8 82 -50 174 -104 227
l-39 38 46 92 c26 50 55 123 66 163 11 44 22 69 29 65 5 -3 41 -30 79 -60z
m1380 -221 c27 -27 31 -39 31 -84 0 -35 -6 -63 -19 -81 l-18 -29 -54 113 c-30
62 -54 115 -54 118 0 2 19 2 42 -1 28 -4 51 -15 72 -36z m-1736 -150 c47 -24
77 -56 97 -103 20 -48 19 -130 -1 -171 -9 -18 -82 -99 -163 -182 l-147 -150
-73 -625 c-45 -383 -80 -648 -92 -685 -20 -65 -75 -164 -115 -206 -13 -14 -24
-30 -24 -35 0 -5 25 -34 56 -64 l55 -55 39 45 c65 75 111 161 154 284 6 17 25
1 131 -104 68 -68 123 -125 121 -127 -40 -40 -289 -222 -336 -246 -61 -30 -71
-32 -170 -32 -97 0 -110 2 -172 32 -88 41 -160 113 -201 201 -30 62 -32 74
-32 172 l1 105 297 924 c164 508 302 931 307 940 13 24 61 68 95 85 42 22 127
20 173 -3z m151 -690 c50 -66 113 -142 140 -169 l49 -49 -47 -22 c-80 -39
-233 -132 -318 -192 -44 -33 -83 -59 -85 -59 -2 0 9 111 25 248 l29 247 56 58
c31 31 58 57 59 57 1 0 43 -54 92 -119z m1536 -157 c102 -135 247 -225 440
-274 146 -37 222 -77 306 -160 130 -130 171 -258 167 -520 l-3 -165 -327 -3
-328 -2 0 262 0 263 26 44 25 45 -55 55 c-55 54 -55 55 -76 36 -11 -10 -35
-48 -53 -84 l-32 -66 -3 -290 c-3 -286 -3 -291 20 -335 24 -47 83 -90 126 -90
l22 0 0 -330 0 -330 -670 0 -670 0 -5 23 c-3 12 -37 229 -76 482 -47 310 -70
489 -71 550 0 96 18 191 50 266 l20 46 -75 36 -74 37 -19 -42 c-45 -103 -64
-199 -65 -328 0 -69 4 -154 8 -190 l8 -65 -66 -49 -66 -50 -175 175 -174 174
17 148 17 148 90 75 c50 42 138 107 196 145 132 87 342 193 367 185 10 -4 59
-68 108 -142 112 -170 180 -229 311 -275 94 -32 185 -35 284 -10 183 46 321
179 374 360 10 35 16 93 16 163 0 98 10 148 30 148 3 0 28 -30 55 -66z m-251
-166 c-19 -103 -96 -206 -191 -254 -52 -26 -68 -29 -153 -29 -85 0 -101 3
-153 30 -54 27 -147 114 -147 137 0 5 10 6 23 2 12 -4 74 -7 137 -7 166 0 327
47 440 127 46 33 51 32 44 -6z m1166 -1448 l0 -330 -250 0 -250 0 0 330 0 330
250 0 250 0 0 -330z"/>
<path d="M2286 3811 c-69 -70 -73 -58 50 -165 138 -122 279 -173 441 -163 134
9 250 58 358 152 l40 34 -60 61 -59 60 -31 -28 c-79 -74 -175 -112 -285 -112
-76 0 -172 27 -225 62 -16 12 -62 52 -100 90 l-71 68 -58 -59z"/>
<path d="M1705 3737 c-2 -7 -15 -54 -29 -106 -31 -109 -63 -162 -128 -210
l-46 -35 36 -72 36 -73 39 22 c56 31 150 136 180 199 14 29 37 97 50 151 l25
97 -37 9 c-93 25 -122 29 -126 18z"/>
<path d="M2922 3060 c-41 -48 -84 -68 -161 -76 l-61 -7 0 -78 0 -79 65 0 c117
0 234 58 300 148 19 26 35 50 35 54 0 7 -135 79 -142 77 -2 0 -18 -18 -36 -39z"/>
<path d="M2943 2479 c-153 -26 -293 -118 -375 -248 l-19 -30 68 -46 68 -46 15
23 c63 97 175 171 275 183 l55 7 0 84 c0 94 7 89 -87 73z"/>
<path d="M502 4338 c26 -69 69 -210 66 -213 -2 -2 -111 36 -242 85 -131 50
-241 90 -245 90 -3 0 -19 -33 -34 -72 -21 -56 -24 -75 -15 -81 15 -10 802
-305 805 -302 2 1 -15 55 -37 120 -22 65 -38 120 -36 123 3 2 79 -21 170 -51
l165 -55 25 76 c20 58 23 78 13 84 -17 11 -610 208 -626 208 -7 0 -11 -6 -9
-12z"/>
<path d="M692 3617 l-302 -102 77 -77 c53 -54 73 -79 62 -82 -7 -3 -121 -32
-252 -65 -131 -32 -240 -61 -243 -64 -6 -5 26 -138 35 -149 5 -5 503 114 765
183 l39 11 -87 87 -86 86 162 54 c90 30 173 57 185 62 l22 8 -25 76 c-14 41
-31 75 -37 74 -7 0 -148 -46 -315 -102z"/>
</g>
</svg>
