<?xml version="1.0" standalone="no"?>
<!DOCTYPE svg PUBLIC "-//W3C//DTD SVG 20010904//EN"
 "http://www.w3.org/TR/2001/REC-SVG-20010904/DTD/svg10.dtd">
<svg version="1.0" xmlns="http://www.w3.org/2000/svg"
 width="256.000000pt" height="256.000000pt" viewBox="0 0 256.000000 256.000000"
 preserveAspectRatio="xMidYMid meet">
<metadata>
Created by potrace 1.14, written by Peter Selinger 2001-2017
</metadata>
<g transform="translate(0.000000,256.000000) scale(0.100000,-0.100000)"
fill="#000000" stroke="none">
<path d="M369 2542 c-42 -50 -43 -46 31 -103 38 -30 69 -57 70 -60 0 -3 -25
-13 -55 -23 -30 -9 -55 -19 -55 -21 0 -8 249 -205 259 -205 5 0 19 13 30 29
l21 29 -70 56 c-39 31 -70 58 -70 61 0 2 25 11 55 21 31 9 54 20 53 24 -2 5
-41 38 -88 76 -47 37 -103 83 -126 101 -38 31 -42 32 -55 15z"/>
<path d="M1073 2301 c-164 -45 -298 -146 -383 -291 -92 -155 -108 -318 -50
-523 l33 -118 -37 -117 c-21 -64 -59 -184 -86 -267 -141 -438 -153 -479 -152
-535 1 -174 179 -318 342 -278 68 17 92 32 218 129 69 54 127 97 128 96 1 -1
4 -20 7 -42 3 -22 11 -71 17 -110 6 -38 14 -88 16 -110 3 -22 10 -58 14 -79 5
-22 6 -44 4 -48 -3 -5 257 -7 577 -6 l582 3 0 170 -1 171 44 23 c54 29 138
117 160 168 9 21 21 47 26 57 6 11 13 54 15 97 4 61 1 92 -16 146 -25 83 -38
102 -137 210 -106 114 -207 251 -274 369 -78 138 -78 140 -17 98 29 -20 93
-55 142 -79 96 -45 116 -62 132 -110 12 -36 8 -68 -13 -113 -9 -19 -14 -35
-12 -36 29 -18 60 -28 71 -23 22 8 49 109 42 158 -15 98 -56 142 -188 203 -97
44 -184 106 -258 183 -43 44 -63 76 -85 133 -57 148 -164 281 -294 365 -129
83 -225 113 -385 120 -89 4 -124 2 -182 -14z m318 -86 c155 -40 274 -120 373
-249 49 -65 74 -116 131 -266 105 -278 257 -520 456 -730 84 -88 113 -153 113
-250 0 -90 -30 -164 -90 -223 -71 -71 -71 -72 -72 67 -1 134 -11 188 -47 254
-13 23 -20 42 -15 42 14 0 78 -67 95 -100 15 -28 16 -29 47 -16 18 8 34 19 36
24 5 17 -55 105 -90 133 -19 15 -73 45 -122 69 -105 50 -204 142 -250 233 -16
31 -31 57 -32 57 -2 0 -19 -7 -38 -17 l-35 -16 29 -57 c15 -31 49 -82 74 -113
l47 -56 -43 15 c-54 19 -102 56 -140 108 -28 38 -29 45 -23 96 4 30 8 77 9
103 1 36 6 52 22 65 57 46 76 129 43 193 -24 48 -92 83 -143 74 -32 -6 -37 -4
-47 19 -11 23 -9 29 11 51 19 21 21 27 10 40 -33 40 -49 39 -101 -10 -77 -72
-126 -90 -239 -90 -114 1 -149 16 -280 121 -47 37 -89 71 -95 75 -6 5 -10 -21
-11 -70 -1 -77 -21 -157 -50 -196 -8 -10 -27 -20 -43 -21 -58 -4 -93 -17 -126
-45 l-34 -30 -11 38 c-21 70 -24 221 -5 293 52 201 224 362 425 398 65 12 188
6 261 -13z m-160 -618 c104 -33 232 -24 322 23 22 12 43 18 48 13 4 -4 31 -55
60 -113 52 -103 53 -106 54 -195 0 -79 -4 -97 -28 -147 -54 -109 -166 -180
-285 -181 -83 0 -132 13 -202 55 -47 29 -154 140 -180 189 -12 22 2 39 38 43
67 9 130 45 152 86 9 17 5 22 -26 38 l-36 18 -28 -28 c-32 -32 -60 -37 -60
-10 0 35 -22 92 -46 121 l-25 30 19 38 c11 21 25 56 32 79 l12 41 62 -42 c34
-22 86 -49 117 -58z m566 -57 c8 -16 8 -31 1 -53 l-11 -30 -28 54 c-15 30 -25
57 -23 61 8 13 49 -9 61 -32z m-869 -66 c25 -17 49 -61 47 -84 -1 -8 -3 -23
-3 -34 -1 -10 -38 -55 -81 -100 -75 -77 -79 -84 -85 -136 -12 -101 -36 -305
-41 -340 -3 -19 -7 -53 -9 -75 -16 -162 -29 -209 -76 -275 l-21 -30 25 -25
c14 -14 31 -22 38 -20 18 7 73 94 82 127 3 16 10 28 14 28 5 0 34 -26 65 -59
l57 -59 -38 -28 c-20 -15 -39 -30 -42 -34 -17 -19 -80 -58 -109 -68 -136 -47
-271 55 -271 204 0 15 34 133 76 263 42 130 107 333 144 451 38 118 73 227 78
241 23 60 101 88 150 53z m62 -332 c19 -25 50 -64 69 -84 18 -21 28 -38 22
-38 -10 0 -153 -83 -199 -117 -22 -16 -23 -16 -18 13 3 16 8 54 11 84 4 30 8
64 10 75 1 11 3 30 4 42 1 21 44 73 59 73 4 0 23 -22 42 -48z m905 -191 c28
-13 55 -24 60 -25 94 -19 140 -42 189 -96 33 -37 50 -66 64 -110 2 -8 7 -61 9
-117 l5 -103 -26 -1 c-14 0 -82 0 -151 0 -69 0 -132 0 -140 0 -12 1 -15 22
-15 126 0 74 5 134 12 150 10 23 9 29 -18 56 l-30 30 -24 -43 c-22 -40 -24
-55 -25 -188 -2 -162 6 -190 55 -210 l30 -12 0 -163 0 -162 -335 0 -334 0 -5
26 c-5 24 -50 313 -64 411 -10 73 -5 162 12 208 l16 43 -35 15 c-19 8 -36 14
-39 14 -2 0 -12 -19 -22 -42 -13 -32 -18 -72 -19 -156 -1 -108 -2 -115 -25
-133 -14 -10 -29 -19 -33 -19 -4 0 -46 38 -93 85 l-85 85 6 47 c4 27 8 59 10
73 7 43 148 150 272 207 l57 26 15 -24 c65 -98 109 -146 163 -172 174 -87 364
33 370 233 1 36 3 68 5 72 2 4 30 -18 61 -50 31 -32 80 -68 107 -81z m-262 8
c-7 -38 -59 -97 -100 -114 -43 -18 -92 -19 -130 -3 -29 12 -83 57 -83 68 0 3
28 5 63 4 73 -2 156 17 212 51 22 13 41 23 42 22 1 -1 -1 -14 -4 -28z m587
-710 l0 -167 -125 1 -125 1 0 162 c0 106 4 164 11 166 6 2 62 3 125 3 l114 0
0 -166z"/>
<path d="M1142 1907 c-12 -13 -22 -27 -22 -31 0 -16 82 -85 128 -107 91 -44
222 -30 301 32 37 29 38 39 6 69 -23 21 -26 22 -42 8 -66 -57 -172 -68 -245
-25 -24 14 -54 37 -67 51 -30 32 -32 32 -59 3z"/>
<path d="M844 1843 c-15 -67 -27 -94 -58 -120 -30 -27 -31 -31 -19 -60 18 -44
25 -46 66 -12 38 32 82 112 92 170 6 32 4 37 -17 42 -44 12 -57 8 -64 -20z"/>
<path d="M1456 1525 c-15 -14 -45 -28 -66 -31 -39 -6 -40 -8 -40 -45 0 -38 1
-39 36 -39 47 0 120 36 146 73 11 15 19 29 17 31 -20 13 -59 36 -62 36 -2 0
-16 -11 -31 -25z"/>
<path d="M1440 1232 c-50 -16 -103 -52 -137 -91 -30 -35 -29 -43 8 -65 l31
-18 33 36 c33 36 88 66 123 66 15 0 19 8 19 36 0 46 -20 55 -77 36z"/>
<path d="M250 2172 c0 -4 9 -31 20 -59 11 -29 18 -53 16 -53 -2 0 -56 20 -120
45 -64 25 -119 45 -122 45 -6 0 -37 -71 -32 -74 12 -9 402 -155 406 -152 1 2
-7 29 -18 61 -11 32 -20 59 -20 61 0 1 38 -10 84 -26 l85 -28 12 35 c6 19 7
38 3 43 -14 12 -314 109 -314 102z"/>
<path d="M345 1809 c-77 -26 -142 -48 -145 -49 -2 0 13 -18 34 -39 l39 -39
-39 -11 c-22 -6 -77 -20 -124 -32 -46 -11 -88 -22 -91 -25 -12 -7 14 -74 28
-74 17 0 376 90 382 95 2 2 -15 23 -38 46 l-41 42 90 29 c49 16 90 33 90 37 0
22 -23 71 -33 70 -7 -1 -75 -23 -152 -50z"/>
</g>
</svg>
